<svg enable-background="new 0 0 128 128" viewBox="0 0 128 128" xmlns="http://www.w3.org/2000/svg" xmlns:xlink="http://www.w3.org/1999/xlink"><linearGradient id="a" gradientUnits="userSpaceOnUse" x1="64" x2="64" y1="4.9627" y2="123.9"><stop offset=".0147" stop-color="#a1887f"/><stop offset=".2039" stop-color="#9d8279"/><stop offset="1" stop-color="#8d6e63"/></linearGradient><linearGradient id="b" gradientUnits="userSpaceOnUse" x1="66.811" x2="66.811" y1="9.5233" y2="119.62"><stop offset=".0147" stop-color="#d7c1ae"/><stop offset=".2517" stop-color="#d1bba9"/><stop offset=".5799" stop-color="#c0a99a"/><stop offset=".9599" stop-color="#a48c82"/><stop offset="1" stop-color="#a1887f"/></linearGradient><linearGradient id="c" gradientUnits="userSpaceOnUse" x1="85.263" x2="85.263" y1="101.54" y2="120.86"><stop offset=".0147" stop-color="#d7c1ae"/><stop offset=".2413" stop-color="#cfb9a7"/><stop offset=".6006" stop-color="#b9a294"/><stop offset=".9169" stop-color="#a1887f"/></linearGradient><path d="m110.16 96.56h-.02v-78.46c0-7.64-6.2-13.85-13.85-13.85h-78.45c-7.64 0-13.85 6.2-13.85 13.85s6.2 13.85 13.85 13.85h.02 9.22v78.46c0 7.64 6.2 13.85 13.85 13.85.1 0 .18-.03.27-.03h68.98v.03c7.65 0 13.85-6.2 13.85-13.85-.02-7.65-6.22-13.85-13.87-13.85z" fill="url(#a)"/><path d="m17.84 8.87c5.1 0 9.23 4.14 9.23 9.23v4.44c-.1-5-4.18-9.05-9.21-9.05-4.3 0-7.89 2.97-8.91 6.95-.2-.75-.34-1.52-.34-2.34 0-5.09 4.14-9.23 9.23-9.23z" fill="#5d4037"/><circle cx="17.86" cy="21.2" fill="#6d4c41" r="4.62"/><path d="m31.68 110.4v-78.46h.02v-9.23h-.02v-4.61c0-3.56-1.38-6.78-3.59-9.23h68.21c5.09 0 9.23 4.14 9.23 9.23v78.46h-64.6-.01-.01c-5.08.01-9.21 4.14-9.21 9.23s4.14 9.23 9.23 9.23c4.28 0 7.85-2.94 8.9-6.9.18.73.31 1.49.31 2.28 0 5-3.99 9.06-8.96 9.2h-.28v.03c-5.08-.01-9.22-4.14-9.22-9.23z" fill="url(#b)"/><path d="m45.55 105.79c0 2.54-2.07 4.62-4.62 4.62-2.54 0-4.62-2.07-4.62-4.62 0-2.54 2.07-4.61 4.61-4.62h.02c2.55.02 4.61 2.08 4.61 4.62z" fill="#5d4037"/><path d="m110.16 119.63v-.03h-58.97c2.19-2.45 3.57-5.65 3.57-9.2 0-3.56-1.38-6.78-3.59-9.23h58.99c5.09 0 9.23 4.14 9.23 9.23s-4.14 9.23-9.23 9.23z"/><path d="m110.14 119.63v-.03h-58.97c2.2-2.45 3.57-5.65 3.57-9.2 0-3.56-1.38-6.78-3.59-9.23h58.99c5.09 0 9.23 4.14 9.23 9.23.01 5.09-4.13 9.23-9.23 9.23z" fill="url(#c)"/><g fill="#8d6e63"><path d="m94.5 30.43h-48.57c-1.11 0-2.01-1.03-2.01-2.3s.9-2.3 2.01-2.3h48.57c1.11 0 2.01 1.03 2.01 2.3s-.9 2.3-2.01 2.3z"/><path d="m94.5 44.49h-48.57c-1.11 0-2.01-1.03-2.01-2.3s.9-2.3 2.01-2.3h48.57c1.11 0 2.01 1.03 2.01 2.3 0 1.26-.9 2.3-2.01 2.3z"/><path d="m94.5 58.55h-48.57c-1.11 0-2.01-1.03-2.01-2.3s.9-2.3 2.01-2.3h48.57c1.11 0 2.01 1.03 2.01 2.3s-.9 2.3-2.01 2.3z"/><path d="m94.5 72.61h-48.57c-1.11 0-2.01-1.03-2.01-2.3s.9-2.3 2.01-2.3h48.57c1.11 0 2.01 1.03 2.01 2.3s-.9 2.3-2.01 2.3z"/><path d="m66.71 86.67h-20.78c-1.11 0-2.01-1.03-2.01-2.3s.9-2.3 2.01-2.3h20.77c1.11 0 2.01 1.03 2.01 2.3s-.9 2.3-2 2.3z"/></g><path d="m96.3 7.25c5.98 0 10.85 4.87 10.85 10.85v78.46c0 1.66 1.36 3 3.02 3 5.98 0 10.85 4.87 10.85 10.85 0 5.86-4.67 10.65-10.48 10.84-.12-.01-.24-.02-.36-.02h-68.99c-.17 0-.32.01-.43.03-5.91-.09-10.68-4.92-10.68-10.84v-78.48c0-1.66-1.34-3-3-3h-9.23c-5.98 0-10.85-4.87-10.85-10.85s4.86-10.84 10.84-10.84zm0-3h-78.46c-7.64 0-13.85 6.2-13.85 13.85 0 7.64 6.2 13.85 13.85 13.85h.02 9.22v78.46c0 7.64 6.2 13.85 13.85 13.85.1 0 .18-.03.27-.03h68.98v.03c7.65 0 13.85-6.2 13.85-13.85s-6.2-13.85-13.85-13.85h-.02v-78.46c-.02-7.65-6.21-13.85-13.86-13.85z" fill="#424242" opacity=".2"/></svg>