<?xml version="1.0" standalone="no"?>
<!DOCTYPE svg PUBLIC "-//W3C//DTD SVG 20010904//EN" "http://www.w3.org/TR/2001/REC-SVG-20010904/DTD/svg10.dtd">
<!-- Created using Krita: https://krita.org -->
<svg xmlns="http://www.w3.org/2000/svg" 
    xmlns:xlink="http://www.w3.org/1999/xlink"
    xmlns:krita="http://krita.org/namespaces/svg/krita"
    xmlns:sodipodi="http://sodipodi.sourceforge.net/DTD/sodipodi-0.dtd"
    width="4500pt"
    height="4500pt"
    viewBox="0 0 4500 4500">
<defs/>
<rect id="shape0" transform="matrix(1 0 -0.284990826579228 1 1593.667373428 1287.49350750969)" fill="#959595" fill-rule="evenodd" stroke="#808080" stroke-width="6.75" stroke-linecap="square" stroke-linejoin="bevel" width="373.5" height="221.815648292426" rx="35.2863883441401" ry="38.3723491506774"/><rect id="shape01" transform="matrix(1.00000000061557 0 0.47620120624016 1.00000000061557 1808.68066814215 1292.82956523608)" fill="#9c9c9c" fill-rule="evenodd" stroke="#808080" stroke-width="6.75" stroke-linecap="square" stroke-linejoin="bevel" width="373.5" height="222.109143089553" rx="23.1845360712564" ry="25.2454922829784"/><rect id="shape01" transform="matrix(0.98113990846818 -0.193298662727971 0.108029339551012 0.997939190608843 3280.66168412287 2738.18150728082)" fill="#a2a2a2" fill-rule="evenodd" stroke-opacity="0" stroke="#000000" stroke-width="6.75" stroke-linecap="square" stroke-linejoin="bevel" width="463.432186299079" height="209.117576326312" rx="22.6345455783077" ry="25.1842948939098"/><rect id="shape02" transform="matrix(0.944985194435521 0.327112949474175 -1.4965530037013 0.540175693054935 2980.18496052176 2618.46429726682)" fill="#a2a2a2" fill-rule="evenodd" stroke-opacity="0" stroke="#000000" stroke-width="6.75" stroke-linecap="square" stroke-linejoin="bevel" width="806.434391448306" height="300.837249705971" rx="39.3871563710762" ry="36.2302114665177"/><rect id="shape1" transform="matrix(0.852025392947428 -0.52350045823551 0.52350045823551 0.852025392947428 3512.49036127573 2405.20508527236)" fill="#a2a2a2" fill-rule="evenodd" stroke="#999999" stroke-width="6.75" stroke-linecap="square" stroke-linejoin="bevel" width="297.580483730359" height="124.492309379156" rx="25.8963050045545" ry="18.2891104765038"/><rect id="shape2" transform="translate(2459.25, 1800)" fill="#9c9c9c" fill-rule="evenodd" stroke="#9c9c9c" stroke-width="6.75" stroke-linecap="square" stroke-linejoin="bevel" width="511.05417350948" height="900"/><rect id="shape03" transform="matrix(0.944252553065556 -0.329254070884474 -0.502977812818687 1.23442340727294 3168.61357788146 2420.07729918388)" fill="#aaaaaa" fill-rule="evenodd" stroke="#8c8c8c" stroke-width="6.75" stroke-linecap="square" stroke-linejoin="bevel" width="577.814897344338" height="217.829789419208" rx="20.8779900146881" ry="28.4421882277463"/><rect id="shape04" transform="matrix(0.981139902528536 0.209935665156585 0.108029338897022 -1.08383071465489 3270.9911192648 1804.20822758055)" fill="#b9b9b9" fill-rule="evenodd" stroke-opacity="0" stroke="#000000" stroke-width="6.75" stroke-linecap="square" stroke-linejoin="bevel" width="463.432186299079" height="209.117576326312" rx="22.6345455783077" ry="25.1842948939098"/><rect id="shape011" transform="matrix(0.944985188714753 -0.355267199783148 -1.49655299464144 -0.586668018404752 2970.51439748271 1934.2293656489)" fill="#b9b9b9" fill-rule="evenodd" stroke-opacity="0" stroke="#000000" stroke-width="6.75" stroke-linecap="square" stroke-linejoin="bevel" width="806.434391448306" height="300.837249705971" rx="39.3871563710762" ry="36.2302114665177"/><rect id="shape021" transform="matrix(0.944985214885535 -0.355267209622053 -1.62481068904729 -0.538449567567255 2762.51709951544 1698.73636696215)" fill="#b9b9b9" fill-rule="evenodd" stroke-opacity="0" stroke="#000000" stroke-width="6.75" stroke-linecap="square" stroke-linejoin="bevel" width="581.344735293563" height="298.781608766891" rx="28.393526165702" ry="35.9826480215158"/><rect id="shape031" transform="matrix(1.0054434857441 -0.330247687450347 -0.275087245161155 -0.989833774072822 2971.00851251524 1973.73089092147)" fill="#9a9a9a" fill-rule="evenodd" stroke="#999999" stroke-width="6.75" stroke-linecap="square" stroke-linejoin="bevel" width="351.184502821264" height="64.1307063862385" rx="10.7393210636432" ry="13.52058791453"/><rect id="shape05" transform="matrix(1.00544349183087 0.304076185937931 -0.275087246826483 0.911391328903294 3072.31580931186 2607.59774789973)" fill="#bdbdbd" fill-rule="evenodd" stroke="#999999" stroke-width="6.75" stroke-linecap="square" stroke-linejoin="bevel" width="266.979868969416" height="66.3518660173102" rx="8.16431963073044" ry="13.9888719200615"/><rect id="shape06" transform="matrix(0.999999987637824 0 0.476201200060146 0.999999987637824 1702.08047053826 1279.33595917135)" fill="#b5b5b5" fill-rule="evenodd" stroke="#999999" stroke-width="6.75" stroke-linecap="square" stroke-linejoin="bevel" width="373.5" height="247.132026699011" rx="19.2875822317365" ry="23.3682300100618"/><rect id="shape07" transform="matrix(0.999964470869557 0.00842777907080585 -0.352599898347966 0.997063761226267 1748.65997675392 1500.40254092066)" fill="#acacac" fill-rule="evenodd" stroke="#999999" stroke-width="6.75" stroke-linecap="square" stroke-linejoin="bevel" width="648.227080221475" height="221.096088272228" rx="21.2938332271687" ry="21.302015611873"/><rect id="shape041" transform="matrix(0.917158082441702 -0.392650717387162 0.166592124094556 -1.25548844101012 2314.55710452575 1574.76539134268)" fill="#9e9e9e" fill-rule="evenodd" stroke="#8c8c8c" stroke-width="6.75" stroke-linecap="square" stroke-linejoin="bevel" width="595.543476513913" height="46.325687004392" rx="7.48289910520776" ry="7.04988739911255"/><rect id="shape08" transform="matrix(0.750344510124423 0.206441694031418 0.526688961450817 -0.546701665972437 2886.92447089222 2040.8701677489)" fill="#bfbfbf" fill-rule="evenodd" stroke="#737373" stroke-width="6.75" stroke-linecap="square" stroke-linejoin="bevel" width="591.228786762877" height="328.937626096085" rx="17.9167607197031" ry="20.0120433754128"/><rect id="shape09" transform="matrix(-0.027916294309907 -1.30948958429039 -0.847334364314888 -0.842039962794089 3787.12108687021 1925.16760586854)" fill="#cbcbcb" fill-rule="evenodd" stroke="#808080" stroke-width="6.75" stroke-linecap="square" stroke-linejoin="bevel" width="119.397665428347" height="94.5" rx="18.5711100245235" ry="18.5711100245235"/><rect id="shape010" transform="matrix(0.944252535596503 -0.329254064793141 0.981205741626405 0.716899261688433 2837.63344156903 2535.32713107162)" fill="#a8a8a8" fill-rule="evenodd" stroke="#8c8c8c" stroke-width="6.75" stroke-linecap="square" stroke-linejoin="bevel" width="441.018489884675" height="219.215633195014" rx="15.9351717486405" ry="28.62313882055"/><rect id="shape061" transform="matrix(-0.887675859432241 -0.500100884183405 -1.04881435438268 0.632613684169168 3790.58883339027 1636.25984182846)" fill="#cbcbcb" fill-rule="evenodd" stroke="#a6a6a6" stroke-width="6.75" stroke-linecap="square" stroke-linejoin="bevel" width="244.158625241729" height="67.8004684307525" rx="23.6531703573332" ry="19.497687320085"/><rect id="shape3" transform="matrix(1 -0.19123789302431 0 1 2889.46600915984 2230.87809204454)" fill="#b2b2b2" fill-rule="evenodd" stroke="#999999" stroke-width="4.5" stroke-linecap="square" stroke-linejoin="bevel" width="776.867313875382" height="282.359707097888" rx="18.0200309492436" ry="21.2594029267366"/><rect id="shape081" transform="matrix(-0.0279162941665461 -1.30948957756565 -0.820040927661653 0.438232592107184 3784.89092772278 1801.26864067432)" fill="#b5b5b5" fill-rule="evenodd" stroke="#999999" stroke-width="6.75" stroke-linecap="square" stroke-linejoin="bevel" width="133.562568338489" height="94.5" rx="10.675020244295" ry="9.54288698865837"/><rect id="shape11" transform="matrix(1.04432713562078 0.122681593389286 -1.1127698945829 -1.170691856126 3521.38208458446 1884.49042420263)" fill="#9e9e9e" fill-rule="evenodd" stroke="#a6a6a6" stroke-width="6.75" stroke-linecap="square" stroke-linejoin="bevel" width="250.168477841634" height="62.6135502112102" rx="7.65022255242165" ry="13.2007279815831"/><rect id="shape0101" transform="matrix(1.04432710957162 0.122681590329179 -0.351713959206637 -1.08128732117137 3315.96949503585 1860.47177451702)" fill="#9e9e9e" fill-rule="evenodd" stroke="#a6a6a6" stroke-width="6.75" stroke-linecap="square" stroke-linejoin="bevel" width="250.168477841634" height="62.6135502112102" rx="7.65022255242165" ry="13.2007279815831"/><rect id="shape011" transform="matrix(0.944985220606303 0.327112958533366 -1.6248106988836 0.495778462795129 2876.4889585613 2803.4694702393)" fill="#a2a2a2" fill-rule="evenodd" stroke-opacity="0" stroke="#000000" stroke-width="6.75" stroke-linecap="square" stroke-linejoin="bevel" width="581.344735293563" height="362.974500491239" rx="28.393526165702" ry="43.7134793733297"/><rect id="shape012" transform="matrix(-0.886719431386412 -0.462307830041607 0.708204174993326 -0.75851675348631 2906.72511527174 2037.25184850572)" fill="#bbbbbb" fill-rule="evenodd" stroke="#a6a6a6" stroke-width="4.5" stroke-linecap="square" stroke-linejoin="bevel" width="416.406558553478" height="226.928791273701" rx="21.4604703695467" ry="18.1538703962556"/><rect id="shape4" transform="translate(1237.5, 1656)" fill="#9c9c9c" fill-rule="evenodd" stroke="#9c9c9c" stroke-width="6.75" stroke-linecap="square" stroke-linejoin="bevel" width="1354.5" height="1163.25"/><rect id="shape013" transform="matrix(-0.86229418131728 -0.506407686421114 0.506407686421114 -0.86229418131728 3760.16609076817 2256.31109924456)" fill="#c1c1c1" fill-rule="evenodd" stroke="#999999" stroke-width="6.75" stroke-linecap="square" stroke-linejoin="bevel" width="307.196945931828" height="124.492309379156" rx="26.7331570558458" ry="18.2891104765038"/><rect id="shape014" transform="matrix(0.73026464705526 0.683164305063743 -0.683164305063743 0.73026464705526 1207.38078284217 2581.76039300883)" fill="#818181" fill-rule="evenodd" stroke="#808080" stroke-width="6.75" stroke-linecap="square" stroke-linejoin="bevel" width="381.700815363657" height="238.927241512893" rx="19.1946531673096" ry="14.6488727382618"/><rect id="shape5" transform="matrix(0.00832215887732633 0.999965370236203 -0.999965370236203 0.00832215887732633 1261.3322040955 1803.83118687574)" fill="#9c9c9c" fill-rule="evenodd" stroke-opacity="0" stroke="#000000" stroke-width="0" stroke-linecap="square" stroke-linejoin="bevel" width="804.318088554031" height="169.772546363621"/><rect id="shape015" transform="matrix(0.999964478253915 0.0084277791330453 0.43676287466551 1.00371658003743 1304.90081132563 1495.41816515032)" fill="#acacac" fill-rule="evenodd" stroke="#999999" stroke-width="6.75" stroke-linecap="square" stroke-linejoin="bevel" width="1067.38793927236" height="223.217190891048" rx="50.1776851638955" ry="12.4351058111777"/><rect id="shape071" transform="matrix(1.15386338519973 0.381096136153066 1.00157827874786 -0.610445980740828 3078.57890980586 1421.06798322245)" fill="#cbcbcb" fill-rule="evenodd" stroke="#a6a6a6" stroke-width="6.75" stroke-linecap="square" stroke-linejoin="bevel" width="397.56326204062" height="71.1409966732072" rx="17.1636051747409" ry="13.4226015941462"/><rect id="shape091" transform="matrix(1.15386338830842 0.381096137179801 0.104932744310736 -0.906588622913138 2853.2555718898 1346.65132390877)" fill="#cbcbcb" fill-rule="evenodd" stroke="#a6a6a6" stroke-width="6.75" stroke-linecap="square" stroke-linejoin="bevel" width="330.200663017926" height="72.276362099653" rx="12.1550101080528" ry="16.1481929556135"/><rect id="shape016" transform="matrix(-0.886719466624724 -0.462307848413766 0.298999825134858 -0.971863171835306 2700.04179460186 1928.97865681639)" fill="#bbbbbb" fill-rule="evenodd" stroke="#a6a6a6" stroke-width="6.75" stroke-linecap="square" stroke-linejoin="bevel" width="459.316287317428" height="226.932965268693" rx="21.002553934795" ry="20.7030142300673"/><rect id="shape017" transform="matrix(0.0333049707240781 0.999445181934433 -1.00421660359808 -0.109880094118531 1100.5511769782 1904.63245586929)" fill="#878787" fill-rule="evenodd" stroke="#808080" stroke-width="6.75" stroke-linecap="square" stroke-linejoin="bevel" width="604.364657314578" height="236.607768899325" rx="23.4562446210201" ry="21.9319166730402"/><rect id="shape6" transform="matrix(0.730264675370557 0.68316433155277 -0.68316433155277 0.730264675370557 1050.56376292454 2432.94646343079)" fill="#818181" fill-rule="evenodd" stroke="#808080" stroke-width="6.75" stroke-linecap="square" stroke-linejoin="bevel" width="272.279062391655" height="241.398361649563" rx="13.692143052796" ry="14.8003796328872"/><rect id="shape7" transform="matrix(0.755726703965535 -0.654887126849657 1.10266063136723 0.367701373757948 858.0473436022 1893.64712544871)" fill="#9e9e9e" fill-rule="evenodd" stroke="#898989" stroke-width="6.75" stroke-linecap="square" stroke-linejoin="bevel" width="374.087011989835" height="228.214679101311" rx="17.5857526780042" ry="12.7135086278993"/><rect id="shape018" transform="matrix(0.918696213924988 0.240165988181451 -0.376461658804035 -0.663286101746507 3327.12907407167 2149.52774987613)" fill="#b9b9b9" fill-rule="evenodd" stroke="#999999" stroke-width="6.75" stroke-linecap="square" stroke-linejoin="bevel" width="431.803375923481" height="383.14229024908" rx="13.7702821889755" ry="18.2650090825205"/><rect id="shape019" transform="matrix(0.0333049712184082 0.999445196768755 -0.984040258126849 0.495590070677107 1109.5616248503 2151.11870680299)" fill="#878787" fill-rule="evenodd" stroke="#808080" stroke-width="6.75" stroke-linecap="square" stroke-linejoin="bevel" width="349.299454249077" height="239.652694079891" rx="17.9944678444491" ry="18.1864777023722"/><rect id="shape020" transform="matrix(0.755726698384769 -0.654887122013559 0.394777821178863 0.981128595388895 1089.21009026611 1692.51019925202)" fill="#9e9e9e" fill-rule="evenodd" stroke="#898989" stroke-width="6.75" stroke-linecap="square" stroke-linejoin="bevel" width="301.607208917859" height="228.067440279883" rx="14.1784922008378" ry="12.7053061668045"/><rect id="shape021" transform="matrix(0.91715808799401 0.361533894364762 0.166592125103074 1.1559933684287 2324.22766359375 2949.44143486013)" fill="#787878" fill-rule="evenodd" stroke="#666666" stroke-width="6.75" stroke-linecap="square" stroke-linejoin="bevel" width="595.543476513913" height="46.325687004392" rx="7.48289910520776" ry="7.04988739911255"/><rect id="shape022" transform="matrix(0.999999958746844 0.0125230095102786 7.34763781982096e-16 0.999999958746844 3651.52778621568 2140.73897149604)" fill="#b0b0b0" fill-rule="evenodd" stroke="#999999" stroke-width="6.75" stroke-linecap="square" stroke-linejoin="bevel" width="171.539058273338" height="216.415010173775" rx="17.5296844828512" ry="18.0077647858866"/><rect id="shape023" transform="matrix(0.999999961107567 0 -0.284990815495241 -1.01898496970291 1518.30625927351 3218.06570745256)" fill="#959595" fill-rule="evenodd" stroke="#808080" stroke-width="6.75" stroke-linecap="square" stroke-linejoin="bevel" width="373.5" height="211.668004262374" rx="35.2863883441401" ry="36.6168871588138"/><rect id="shape024" transform="matrix(0.999999961723161 0 0.476201187719549 -1.01898497033019 1733.31954562528 3212.62834483191)" fill="#9c9c9c" fill-rule="evenodd" stroke="#808080" stroke-width="6.75" stroke-linecap="square" stroke-linejoin="bevel" width="373.5" height="203.976907322484" rx="23.1845360712564" ry="23.1845360712564"/><rect id="shape0111" transform="matrix(0.999999948745391 0 0.476201181539518 -1.01898495710604 1633.51063460513 3211.8460025475)" fill="#b5b5b5" fill-rule="evenodd" stroke="#999999" stroke-width="6.75" stroke-linecap="square" stroke-linejoin="bevel" width="373.5" height="203.976907322484" rx="19.2875822317365" ry="19.2875822317365"/><rect id="shape8" transform="matrix(1 0 -0.381706780848306 1 1402.85541382974 2770.93376814747)" fill="#919191" fill-rule="evenodd" stroke="#808080" stroke-width="6.75" stroke-linecap="square" stroke-linejoin="bevel" width="1082.28631256691" height="241.051309871094" rx="18.2278661719234" ry="16.6144190816018"/><rect id="shape9" transform="matrix(0.907237652044241 -0.420618405105238 0.107088920584111 1.05259787980328 2340.38165104718 2770.39286579352)" fill="#9c9c9c" fill-rule="evenodd" stroke="#8c8c8c" stroke-width="6.75" stroke-linecap="square" stroke-linejoin="bevel" width="429.781487543329" height="230.690912775341" rx="17.290845621526" ry="13.3351067322399"/><rect id="shape10" transform="translate(1289.74479284519, 3210.58097809429)" fill="#b7b7b7" fill-rule="evenodd" stroke="#808080" stroke-width="6.75" stroke-linecap="square" stroke-linejoin="bevel" width="1141.14124648596" height="576" rx="38.9045823012527" ry="38.5844093840531"/><rect id="shape11" transform="matrix(0.933170528102569 1.04312094432411 0.0198242574691711 1.03597585838988 2394.18940407118 3189.51644022449)" fill="#9e9e9e" fill-rule="evenodd" stroke="#808080" stroke-width="6.75" stroke-linecap="square" stroke-linejoin="bevel" width="104.772664685785" height="399.934434879767" rx="48.6908255368081" ry="40.6900411286669"/><rect id="shape025" transform="matrix(0.907237657920415 -0.420618407829585 0.818230164927928 0.722894754222628 2505.7933136732 2691.30575998441)" fill="#9c9c9c" fill-rule="evenodd" stroke="#8c8c8c" stroke-width="6.75" stroke-linecap="square" stroke-linejoin="bevel" width="444.562256527415" height="233.735819856298" rx="17.2307007267641" ry="15.6668422353791"/><rect id="shape12" transform="matrix(1 0.124813044177298 2.44921270764475e-16 1 3686.62499535225 2165.62500000001)" fill="#2c3442" fill-rule="evenodd" stroke-opacity="0" stroke="#000000" stroke-width="0" stroke-linecap="square" stroke-linejoin="bevel" width="114.75" height="140.926070347196" rx="14.7462520979225" ry="14.7462520979225"/><rect id="shape026" transform="matrix(0.999999992257757 -0.0865648237779917 4.89842537736461e-16 0.999999992257757 3687.27223543003 2190.40799004343)" fill="#2c3442" fill-rule="evenodd" stroke-opacity="0" stroke="#000000" stroke-width="0" stroke-linecap="square" stroke-linejoin="bevel" width="114.75" height="140.926070347196" rx="22.1448382979011" ry="22.1448382979011"/><ellipse id="shape027" transform="matrix(0.999999953155357 0 0 0.999999953155357 1046.05085402297 3351.22197071964)" rx="131.625" ry="138.375" cx="131.625" cy="138.375" fill="#ededed" fill-rule="evenodd" stroke="#ededed" stroke-width="6.75" stroke-linecap="square" stroke-linejoin="bevel"/><ellipse id="shape111" transform="matrix(0.999999953155357 0 0 0.999999953155357 1157.04076182927 3308.50039152194)" rx="17.6312090977584" ry="180.017933033631" cx="17.6312090977584" cy="180.017933033631" fill="#ebebeb" fill-rule="evenodd" stroke-opacity="0" stroke="#000000" stroke-width="6.75" stroke-linecap="square" stroke-linejoin="bevel"/><rect id="shape21" transform="matrix(0.999999953155357 0 0 0.999999953155357 895.083418616437 3380.14072435947)" fill="#ededed" fill-rule="evenodd" stroke-opacity="0" stroke="#000000" stroke-width="6.75" stroke-linecap="square" stroke-linejoin="bevel" width="225" height="51.75" rx="22.9860339498646" ry="22.9860339498646"/><rect id="shape031" transform="matrix(0.999999965937407 0 0 0.999999965937407 768.602301548452 3463.37112971076)" fill="#ededed" fill-rule="evenodd" stroke-opacity="0" stroke="#000000" stroke-width="6.75" stroke-linecap="square" stroke-linejoin="bevel" width="225" height="51.75" rx="22.9860339498646" ry="22.9860339498646"/><rect id="shape041" transform="matrix(0.999999965937407 0 0 0.999999965937407 892.729190102274 3549.83118422669)" fill="#ededed" fill-rule="evenodd" stroke-opacity="0" stroke="#000000" stroke-width="6.75" stroke-linecap="square" stroke-linejoin="bevel" width="225" height="51.75" rx="22.9860339498646" ry="22.9860339498646"/><rect id="shape051" transform="matrix(0.999999916804663 0 0 0.999999916804663 648.561156668774 3541.73550818614)" fill="#ededed" fill-rule="evenodd" stroke-opacity="0" stroke="#000000" stroke-width="6.75" stroke-linecap="square" stroke-linejoin="bevel" width="208.699213937506" height="26.1902340385488" rx="21.3207431861225" ry="11.6330359181639"/><rect id="shape061" transform="matrix(0.99999993556872 0 0 0.99999993556872 640.360491397582 3411.6879346338)" fill="#ededed" fill-rule="evenodd" stroke-opacity="0" stroke="#000000" stroke-width="6.75" stroke-linecap="square" stroke-linejoin="bevel" width="208.699213937506" height="26.1902340385488" rx="21.3207431861225" ry="11.6330359181639"/><rect id="shape071" transform="matrix(0.99999993556872 0 0 0.99999993556872 596.068634640202 3483.50185671767)" fill="#ededed" fill-rule="evenodd" stroke-opacity="0" stroke="#000000" stroke-width="6.75" stroke-linecap="square" stroke-linejoin="bevel" width="122.697835852407" height="26.1902340385488" rx="12.5348294243482" ry="11.6330359181639"/><rect id="shape13" transform="translate(1799.00666800795, 3553.17987196246)" fill="#b53d3b" fill-rule="evenodd" stroke="#780422" stroke-width="4.5" stroke-linecap="square" stroke-linejoin="bevel" width="90" height="201.222449971836" rx="14.9488243346113" ry="16.5883744903301"/><rect id="shape028" transform="matrix(0.897391171777719 -0.816411588757111 0.0168115104997576 1.03894255513256 2400.3177812137 3529.14578798204)" fill="#9e9e9e" fill-rule="evenodd" stroke="#808080" stroke-width="6.75" stroke-linecap="square" stroke-linejoin="bevel" width="104.100442189965" height="254.104462031847" rx="34.9655666402498" ry="29.4211121278599"/><rect id="shape14" transform="matrix(1 -0.643391183234829 0 1 1171.56023175064 3298.64780496153)" fill="#a8a8a8" fill-rule="evenodd" stroke="#878787" stroke-width="6.75" stroke-linecap="square" stroke-linejoin="bevel" width="158.844223643865" height="330.75" rx="33.4749146737288" ry="27.8835787454793"/><rect id="shape029" transform="matrix(0.999999975896208 0.735124325212996 2.44921264860944e-16 0.999999975896207 1172.09037786652 3352.97693628498)" fill="#a8a8a8" fill-rule="evenodd" stroke="#878787" stroke-width="6.75" stroke-linecap="square" stroke-linejoin="bevel" width="158.844223643865" height="330.75" rx="33.4749146737288" ry="27.8835787454793"/><rect id="shape030" transform="matrix(0.999999981888294 0 0 0.999999981888294 1799.52068643942 3242.03425593064)" fill="#b53d3b" fill-rule="evenodd" stroke="#780422" stroke-width="4.5" stroke-linecap="square" stroke-linejoin="bevel" width="90" height="277.471040750978" rx="18.1654170135712" ry="17.6490933679818"/><rect id="shape0311" transform="matrix(0.99999997662384 0 0 0.99999997662384 1351.91586192676 718.78036170223)" fill="#b7b7b7" fill-rule="evenodd" stroke="#808080" stroke-width="6.75" stroke-linecap="square" stroke-linejoin="bevel" width="1141.14124648596" height="576" rx="38.9045823012527" ry="38.5844093840531"/><rect id="shape121" transform="matrix(0.933170506288625 1.04312091993995 0.0198242570057561 1.03597583417274 2456.36044733507 697.715824324839)" fill="#9e9e9e" fill-rule="evenodd" stroke="#808080" stroke-width="6.75" stroke-linecap="square" stroke-linejoin="bevel" width="104.772664685785" height="399.934434879767" rx="48.6908255368081" ry="40.6900411286669"/><ellipse id="shape032" transform="matrix(0.999999929779198 0 0 0.999999929779198 1108.22192880116 859.421351039933)" rx="131.625" ry="138.375" cx="131.625" cy="138.375" fill="#ededed" fill-rule="evenodd" stroke="#ededed" stroke-width="6.75" stroke-linecap="square" stroke-linejoin="bevel"/><ellipse id="shape131" transform="matrix(0.999999929779198 0 0 0.999999929779198 1219.21183401295 816.6997728409)" rx="17.6312090977584" ry="180.017933033631" cx="17.6312090977584" cy="180.017933033631" fill="#ebebeb" fill-rule="evenodd" stroke-opacity="0" stroke="#000000" stroke-width="6.75" stroke-linecap="square" stroke-linejoin="bevel"/><rect id="shape21" transform="matrix(0.999999929779198 0 0 0.999999929779198 957.25449692367 888.340104003755)" fill="#ededed" fill-rule="evenodd" stroke-opacity="0" stroke="#000000" stroke-width="6.75" stroke-linecap="square" stroke-linejoin="bevel" width="225" height="51.75" rx="22.9860339498646" ry="22.9860339498646"/><rect id="shape0321" transform="matrix(0.999999942561247 0 0 0.999999942561247 830.773382812328 971.570507409437)" fill="#ededed" fill-rule="evenodd" stroke-opacity="0" stroke="#000000" stroke-width="6.75" stroke-linecap="square" stroke-linejoin="bevel" width="225" height="51.75" rx="22.9860339498646" ry="22.9860339498646"/><rect id="shape042" transform="matrix(0.999999942561247 0 0 0.999999942561247 954.90026846454 1058.03055990426)" fill="#ededed" fill-rule="evenodd" stroke-opacity="0" stroke="#000000" stroke-width="6.75" stroke-linecap="square" stroke-linejoin="bevel" width="225" height="51.75" rx="22.9860339498646" ry="22.9860339498646"/><rect id="shape051" transform="matrix(0.999999893428505 0 0 0.999999893428505 710.732240738751 1049.93488405296)" fill="#ededed" fill-rule="evenodd" stroke-opacity="0" stroke="#000000" stroke-width="6.75" stroke-linecap="square" stroke-linejoin="bevel" width="208.699213937506" height="26.1902340385488" rx="21.3207431861225" ry="11.6330359181639"/><rect id="shape062" transform="matrix(0.999999912192561 0 0 0.999999912192561 702.531575659259 919.887313540631)" fill="#ededed" fill-rule="evenodd" stroke-opacity="0" stroke="#000000" stroke-width="6.75" stroke-linecap="square" stroke-linejoin="bevel" width="208.699213937506" height="26.1902340385488" rx="21.3207431861225" ry="11.6330359181639"/><rect id="shape072" transform="matrix(0.999999912192561 0 0 0.999999912192561 658.239719937253 991.701233945768)" fill="#ededed" fill-rule="evenodd" stroke-opacity="0" stroke="#000000" stroke-width="6.75" stroke-linecap="square" stroke-linejoin="bevel" width="122.697835852407" height="26.1902340385488" rx="12.5348294243482" ry="11.6330359181639"/><rect id="shape22" transform="matrix(0.99999997662384 0 0 0.99999997662384 1850.72704406148 751.164998907938)" fill="#b53d3b" fill-rule="evenodd" stroke="#780422" stroke-width="4.5" stroke-linecap="square" stroke-linejoin="bevel" width="90" height="201.222449971836" rx="14.9488243346113" ry="16.5883744903301"/><rect id="shape0121" transform="matrix(0.89739115080016 -0.816411569672544 0.016811510106769 1.03894253084607 2462.48882433433 1037.34516414316)" fill="#9e9e9e" fill-rule="evenodd" stroke="#808080" stroke-width="6.75" stroke-linecap="square" stroke-linejoin="bevel" width="104.100442189965" height="254.104462031847" rx="34.9655666402498" ry="29.4211121278599"/><rect id="shape31" transform="matrix(0.99999997662384 -0.643391168194825 0 0.99999997662384 1233.73130359491 806.847186510807)" fill="#a8a8a8" fill-rule="evenodd" stroke="#878787" stroke-width="6.75" stroke-linecap="square" stroke-linejoin="bevel" width="158.844223643865" height="330.75" rx="33.4749146737288" ry="27.8835787454793"/><rect id="shape0211" transform="matrix(0.999999952520048 0.735124308028612 2.44921259135625e-16 0.999999952520047 1234.2614496984 861.17631656425)" fill="#a8a8a8" fill-rule="evenodd" stroke="#878787" stroke-width="6.75" stroke-linecap="square" stroke-linejoin="bevel" width="158.844223643865" height="330.75" rx="33.4749146737288" ry="27.8835787454793"/><rect id="shape033" transform="matrix(0.999999958512134 0 0 0.999999958512134 1849.63901464883 987.326939808013)" fill="#b53d3b" fill-rule="evenodd" stroke="#780422" stroke-width="4.5" stroke-linecap="square" stroke-linejoin="bevel" width="90" height="277.471040750978" rx="18.1654170135712" ry="17.6490933679818"/><rect id="shape15" transform="matrix(-0.0279162944789072 1.20571502374664 -0.847334369444496 0.775309896249435 3796.79165485284 2626.80792980871)" fill="#a6a6a6" fill-rule="evenodd" stroke="#8c8c8c" stroke-width="6.75" stroke-linecap="square" stroke-linejoin="bevel" width="119.397665428347" height="94.5" rx="18.5711100245235" ry="18.5711100245235"/><rect id="shape0331" transform="matrix(-0.887675864806069 0.46046883967822 -1.04881436073201 -0.582480252138708 3800.25940139389 2892.82030268982)" fill="#939393" fill-rule="evenodd" stroke="#8c8c8c" stroke-width="6.75" stroke-linecap="square" stroke-linejoin="bevel" width="244.158625241729" height="67.8004684307525" rx="23.6531703573332" ry="19.497687320085"/><rect id="shape034" transform="matrix(1.15386339218501 -0.350894991731107 1.00157828481123 0.56206929707182 3088.24947349911 3090.95861552705)" fill="#898989" fill-rule="evenodd" stroke="#808080" stroke-width="6.75" stroke-linecap="square" stroke-linejoin="bevel" width="397.56326204062" height="71.1409966732072" rx="17.1636051747409" ry="13.4226015941462"/><rect id="shape035" transform="matrix(-0.0279162943355462 1.20571501755482 -0.820040932626032 -0.403503492152934 3794.56149569191 2740.88813751215)" fill="#a6a6a6" fill-rule="evenodd" stroke="#8c8c8c" stroke-width="6.75" stroke-linecap="square" stroke-linejoin="bevel" width="133.562568338489" height="94.5" rx="10.675020244295" ry="9.54288698865837"/><rect id="shape036" transform="matrix(1.1538633952937 -0.350894992676475 0.10493274494598 0.834743197744861 2862.92613421898 3159.47789603753)" fill="#898989" fill-rule="evenodd" stroke="#737373" stroke-width="6.75" stroke-linecap="square" stroke-linejoin="bevel" width="330.200663017926" height="72.276362099653" rx="12.1550101080528" ry="16.1481929556135"/><rect id="shape16" transform="matrix(1.04432714194295 -0.112959310300124 -1.1127699013194 1.07791675171961 3531.65431484005 2663.67870302262)" fill="#c5c5c5" fill-rule="evenodd" stroke="#999999" stroke-width="6.75" stroke-linecap="square" stroke-linejoin="bevel" width="250.168477841634" height="63.1542405021519" rx="7.65022255242165" ry="13.3147209659919"/><rect id="shape037" transform="matrix(1.04432711589379 -0.112959307482525 -0.351713961335849 0.995597356224537 3325.71481837098 2686.16512130867)" fill="#c5c5c5" fill-rule="evenodd" stroke="#999999" stroke-width="6.75" stroke-linecap="square" stroke-linejoin="bevel" width="250.168477841634" height="62.8261041982073" rx="7.65022255242165" ry="13.24554044397"/><rect id="shape038" transform="matrix(0.99999996896203 0.141305180407368 4.8984252632523e-16 0.999999968962029 2888.81383314549 2031.73296029059)" fill="#b2b2b2" fill-rule="evenodd" stroke="#999999" stroke-width="4.5" stroke-linecap="square" stroke-linejoin="bevel" width="776.709911835107" height="221.850180323509" rx="9.84956418446453" ry="9.87990145416973"/><rect id="shape039" transform="matrix(0.00334473584599412 0.999994308746233 -0.99996229438198 0.0129162486745243 3061.40398441398 1499.04662739264)" fill="#b53d3b" fill-rule="evenodd" stroke="#780422" stroke-width="9" stroke-linecap="square" stroke-linejoin="bevel" width="205.680479694655" height="208.143750673834" rx="102.840239847327" ry="102.840239847327"/><rect id="shape040" transform="matrix(0.0033447357499908 0.999994280043575 -0.999962265680284 0.012916248303792 3065.63792477173 2819.77774080054)" fill="#b53d3b" fill-rule="evenodd" stroke="#780422" stroke-width="9" stroke-linecap="square" stroke-linejoin="bevel" width="205.680479694655" height="208.143750673834" rx="102.840239847327" ry="102.840239847327"/><ellipse id="shape17" transform="translate(2806.19845151509, 1838.71251676953)" rx="19.6220252776193" ry="38.6120293273401" cx="19.6220252776193" cy="38.6120293273401" fill="#383838" fill-rule="evenodd" stroke-opacity="0" stroke="#000000" stroke-width="0" stroke-linecap="square" stroke-linejoin="bevel"/><rect id="shape18" transform="translate(2807.91770384188, 1853.65131199222)" fill="#4f4f4f" fill-rule="evenodd" stroke-opacity="0" stroke="#000000" stroke-width="0" stroke-linecap="square" stroke-linejoin="bevel" width="183.533892717968" height="47.25" rx="10.8762769977734" ry="18.9336718647846"/><ellipse id="shape0411" transform="matrix(1.00000001632256 0 0 1.00000001632256 2806.73422067791 2629.49016157084)" rx="15.5510098442833" ry="38.6120293273401" cx="15.5510098442833" cy="38.6120293273401" fill="#383838" fill-rule="evenodd" stroke-opacity="0" stroke="#000000" stroke-width="0" stroke-linecap="square" stroke-linejoin="bevel"/><rect id="shape141" transform="matrix(1.00000001632256 0 0 1.00000001632256 2808.45347303277 2644.42895703736)" fill="#4f4f4f" fill-rule="evenodd" stroke-opacity="0" stroke="#000000" stroke-width="0" stroke-linecap="square" stroke-linejoin="bevel" width="183.533892717968" height="47.25" rx="9.88995997853158" ry="9.88995997853158"/><rect id="shape19" transform="translate(1221.20405849909, 2080.125)" fill="#a4a4a4" fill-rule="evenodd" stroke-opacity="0" stroke="#000000" stroke-width="0" stroke-linecap="square" stroke-linejoin="bevel" width="216" height="339.75" rx="24.4047175765525" ry="24.4047175765525"/><rect id="shape0421" transform="matrix(0.99999998263718 0 0 0.99999998263718 1220.2895210394 2262.37504653455)" fill="#979797" fill-rule="evenodd" stroke-opacity="0" stroke="#000000" stroke-width="0" stroke-linecap="square" stroke-linejoin="bevel" width="150.523009770196" height="157.521125041312" rx="28.1476626454536" ry="28.0729235995555"/><rect id="shape043" transform="matrix(0.999999962312876 0 0 0.999999962312876 1401.66242017891 2081.41307523158)" fill="#bdbdbd" fill-rule="evenodd" stroke-opacity="0" stroke="#000000" stroke-width="0" stroke-linecap="square" stroke-linejoin="bevel" width="35.4327987019935" height="149.950730811766" rx="16.7120378698241" ry="16.7120378698241"/><rect id="shape20" transform="translate(1238.43198054555, 2095.875)" fill="#9e9e9e" fill-rule="evenodd" stroke-opacity="0" stroke="#000000" stroke-width="0" stroke-linecap="square" stroke-linejoin="bevel" width="186.75" height="308.25" rx="29.0880115609325" ry="29.0880115609325"/><rect id="shape0131" transform="matrix(0.99999993818802 0 0 0.99999993818802 1266.70578826096 2343.22737437556)" fill="#7e7e7e" fill-rule="evenodd" stroke-opacity="0" stroke="#000000" stroke-width="0" stroke-linecap="square" stroke-linejoin="bevel" width="139.5" height="29.6522453135831" rx="10.1118514282712" ry="10.1118514282712"/><rect id="shape0141" transform="matrix(0.999999962898713 0 0 0.999999962898713 1267.71832118658 2289.94265659259)" fill="#7e7e7e" fill-rule="evenodd" stroke-opacity="0" stroke="#000000" stroke-width="0" stroke-linecap="square" stroke-linejoin="bevel" width="139.5" height="29.6522453135831" rx="10.1118514282712" ry="10.1118514282712"/><rect id="shape0151" transform="matrix(0.999999962898713 0 0 0.999999962898713 1267.71832118658 2235.17387789328)" fill="#7e7e7e" fill-rule="evenodd" stroke-opacity="0" stroke="#000000" stroke-width="0" stroke-linecap="square" stroke-linejoin="bevel" width="139.5" height="29.6522453135831" rx="10.1118514282712" ry="10.1118514282712"/><rect id="shape0161" transform="matrix(0.999999959006992 0 0 0.999999959006992 1267.25706768431 2180.93553113076)" fill="#7e7e7e" fill-rule="evenodd" stroke-opacity="0" stroke="#000000" stroke-width="0" stroke-linecap="square" stroke-linejoin="bevel" width="139.5" height="29.6522453135831" rx="10.1118514282712" ry="10.1118514282712"/><rect id="shape0112" transform="matrix(0.999999983717686 0 0 0.999999983717686 1268.26960063101 2127.65081223846)" fill="#7e7e7e" fill-rule="evenodd" stroke-opacity="0" stroke="#000000" stroke-width="0" stroke-linecap="square" stroke-linejoin="bevel" width="139.5" height="29.6522453135831" rx="10.1118514282712" ry="10.1118514282712"/><g id="group0" transform="translate(1524.47478451336, 2795.62508132824)" fill="none">
  <rect id="shape044" transform="matrix(1.94289026129718e-16 0.99999994594713 -0.99999994594713 1.94289026129718e-16 681.433228570211 -4.54747350886464e-13)" fill="#7e7e7e" fill-rule="evenodd" stroke-opacity="0" stroke="#000000" stroke-width="0" stroke-linecap="square" stroke-linejoin="bevel" width="187.481603180449" height="681.433265403635" rx="44.9057732168744" ry="45.0000037414861"/>
  <rect id="shape045" transform="matrix(1.94289029309404e-16 0.999999962312887 -0.999999962312887 1.94289029309404e-16 669.500726368126 16.2886409693915)" fill="#8f8f8f" fill-rule="evenodd" stroke-opacity="0" stroke="#000000" stroke-width="0" stroke-linecap="square" stroke-linejoin="bevel" width="164.8289897772" height="658.157527980256" rx="34.7944156906571" ry="39.4218100773014"/>
  <rect id="shape0171" transform="matrix(-4.02455846426626e-16 0.9999999005009 -0.9999999005009 -4.02455846426626e-16 95.525573124173 30.2435356354918)" fill="#5f5f5f" fill-rule="evenodd" stroke-opacity="0" stroke="#000000" stroke-width="0" stroke-linecap="square" stroke-linejoin="bevel" width="139.5" height="29.6522453135831" rx="10.1118514282712" ry="10.1118514282712"/>
  <rect id="shape0111" transform="matrix(1.12410081243297e-15 0.999999925211595 -0.999999925211595 1.12410081243297e-15 148.810288898994 31.2560685229519)" fill="#5f5f5f" fill-rule="evenodd" stroke-opacity="0" stroke="#000000" stroke-width="0" stroke-linecap="square" stroke-linejoin="bevel" width="139.5" height="29.6522453135831" rx="10.1118514282712" ry="10.1118514282712"/>
  <rect id="shape0122" transform="matrix(1.12410081243297e-15 0.999999925211595 -0.999999925211595 1.12410081243297e-15 203.579065534228 31.2560685229528)" fill="#5f5f5f" fill-rule="evenodd" stroke-opacity="0" stroke="#000000" stroke-width="0" stroke-linecap="square" stroke-linejoin="bevel" width="139.5" height="29.6522453135831" rx="10.1118514282712" ry="10.1118514282712"/>
  <rect id="shape0132" transform="matrix(6.93889390390749e-17 0.999999921319913 -0.999999921319913 6.93889390390749e-17 257.817410252656 30.7948150380648)" fill="#5f5f5f" fill-rule="evenodd" stroke-opacity="0" stroke="#000000" stroke-width="0" stroke-linecap="square" stroke-linejoin="bevel" width="139.5" height="29.6522453135831" rx="10.1118514282712" ry="10.1118514282712"/>
  <rect id="shape0112" transform="matrix(1.38777878078148e-16 0.99999994603056 -0.99999994603056 1.38777878078148e-16 311.102127136823 31.8073479465997)" fill="#5f5f5f" fill-rule="evenodd" stroke-opacity="0" stroke="#000000" stroke-width="0" stroke-linecap="square" stroke-linejoin="bevel" width="139.5" height="29.6522453135831" rx="10.1118514282712" ry="10.1118514282712"/>
  <rect id="shape0181" transform="matrix(-4.0245584750703e-16 0.999999903185431 -0.999999903185431 -4.0245584750703e-16 360.287985726469 29.2355660370358)" fill="#5f5f5f" fill-rule="evenodd" stroke-opacity="0" stroke="#000000" stroke-width="0" stroke-linecap="square" stroke-linejoin="bevel" width="139.5" height="29.6522453135831" rx="10.1118514282712" ry="10.1118514282712"/>
  <rect id="shape0113" transform="matrix(1.12410081545068e-15 0.999999927896125 -0.999999927896125 1.12410081545068e-15 412.777206529451 30.2480989272153)" fill="#5f5f5f" fill-rule="evenodd" stroke-opacity="0" stroke="#000000" stroke-width="0" stroke-linecap="square" stroke-linejoin="bevel" width="139.5" height="29.6522453135831" rx="10.1118514282712" ry="10.1118514282712"/>
  <rect id="shape0121" transform="matrix(1.12410081545068e-15 0.999999927896125 -0.999999927896125 1.12410081545068e-15 466.750488196836 30.2480989272167)" fill="#5f5f5f" fill-rule="evenodd" stroke-opacity="0" stroke="#000000" stroke-width="0" stroke-linecap="square" stroke-linejoin="bevel" width="139.5" height="29.6522453135831" rx="10.1118514282712" ry="10.1118514282712"/>
  <rect id="shape0131" transform="matrix(6.93889392253511e-17 0.999999924004437 -0.999999924004437 6.93889392253511e-17 520.988833060871 29.7868454410882)" fill="#5f5f5f" fill-rule="evenodd" stroke-opacity="0" stroke="#000000" stroke-width="0" stroke-linecap="square" stroke-linejoin="bevel" width="139.5" height="29.6522453135831" rx="10.1118514282712" ry="10.1118514282712"/>
  <rect id="shape01111" transform="matrix(1.38777878450696e-16 0.999999948715061 -0.999999948715061 1.38777878450696e-16 573.478054973188 30.7993783523461)" fill="#5f5f5f" fill-rule="evenodd" stroke-opacity="0" stroke="#000000" stroke-width="0" stroke-linecap="square" stroke-linejoin="bevel" width="139.5" height="29.6522453135831" rx="10.1118514282712" ry="10.1118514282712"/>
  <rect id="shape0132" transform="matrix(6.93889419677342e-17 0.999999963526335 -0.999999963526335 6.93889419677342e-17 627.128527791855 30.3147930337059)" fill="#5f5f5f" fill-rule="evenodd" stroke-opacity="0" stroke="#000000" stroke-width="0" stroke-linecap="square" stroke-linejoin="bevel" width="139.5" height="29.6522453135831" rx="10.1118514282712" ry="10.1118514282712"/>
 </g><rect id="shape046" transform="matrix(1.86560463985758e-16 0.856732945358911 -0.960221262198675 1.66453818604334e-16 2184.75003925575 1529.12836426816)" fill="#898989" fill-rule="evenodd" stroke-opacity="0" stroke="#000000" stroke-width="0" stroke-linecap="square" stroke-linejoin="bevel" width="187.481603180449" height="681.433265403635" rx="44.9057732168744" ry="45.0000037414861"/><rect id="shape0191" transform="matrix(1.8656046703896e-16 0.856732959379994 -0.960221277913422 1.66453821328476e-16 2173.29219631075 1536.89588024908)" fill="#a4a4a4" fill-rule="evenodd" stroke-opacity="0" stroke="#000000" stroke-width="0" stroke-linecap="square" stroke-linejoin="bevel" width="164.8289897772" height="658.157527980256" rx="34.7944156906571" ry="39.4218100773014"/><rect id="shape0110" transform="matrix(-3.86446681723563e-16 0.856732906423626 -0.960221218560235 -3.44797201323275e-16 1622.1490204013 1548.67503776156)" fill="#7e7e7e" fill-rule="evenodd" stroke-opacity="0" stroke="#000000" stroke-width="0" stroke-linecap="square" stroke-linejoin="bevel" width="139.5" height="29.6522453135831" rx="10.1118514282712" ry="10.1118514282712"/><rect id="shape0114" transform="matrix(1.07938555929683e-15 0.856732927594094 -0.960221242287972 9.6305425197189e-16 1673.31414020411 1549.5425080914)" fill="#7e7e7e" fill-rule="evenodd" stroke-opacity="0" stroke="#000000" stroke-width="0" stroke-linecap="square" stroke-linejoin="bevel" width="139.5" height="29.6522453135831" rx="10.1118514282712" ry="10.1118514282712"/><rect id="shape0122" transform="matrix(1.07938555929683e-15 0.856732927594094 -0.960221242287972 9.6305425197189e-16 1725.90428687652 1549.5425080914)" fill="#7e7e7e" fill-rule="evenodd" stroke-opacity="0" stroke="#000000" stroke-width="0" stroke-linecap="square" stroke-linejoin="bevel" width="139.5" height="29.6522453135831" rx="10.1118514282712" ry="10.1118514282712"/><rect id="shape0133" transform="matrix(6.66287382282019e-17 0.856732924259961 -0.960221238551096 5.94477933316004e-17 1777.98510151674 1549.14733701337)" fill="#7e7e7e" fill-rule="evenodd" stroke-opacity="0" stroke="#000000" stroke-width="0" stroke-linecap="square" stroke-linejoin="bevel" width="139.5" height="29.6522453135831" rx="10.1118514282712" ry="10.1118514282712"/><rect id="shape01111" transform="matrix(1.33257476456402e-16 0.856732945430388 -0.960221262278785 1.18895586663199e-16 1829.15022238477 1550.01480736126)" fill="#7e7e7e" fill-rule="evenodd" stroke-opacity="0" stroke="#000000" stroke-width="0" stroke-linecap="square" stroke-linejoin="bevel" width="139.5" height="29.6522453135831" rx="10.1118514282712" ry="10.1118514282712"/><rect id="shape0115" transform="matrix(-3.8644668276099e-16 0.856732908723553 -0.960221221137979 -3.44797202248893e-16 1876.37953215493 1547.81147695197)" fill="#7e7e7e" fill-rule="evenodd" stroke-opacity="0" stroke="#000000" stroke-width="0" stroke-linecap="square" stroke-linejoin="bevel" width="139.5" height="29.6522453135831" rx="10.1118514282712" ry="10.1118514282712"/><rect id="shape01121" transform="matrix(1.0793855621945e-15 0.856732929894019 -0.960221244865714 9.63054254557261e-16 1926.78080073052 1548.67894728413)" fill="#7e7e7e" fill-rule="evenodd" stroke-opacity="0" stroke="#000000" stroke-width="0" stroke-linecap="square" stroke-linejoin="bevel" width="139.5" height="29.6522453135831" rx="10.1118514282712" ry="10.1118514282712"/><rect id="shape01211" transform="matrix(1.0793855621945e-15 0.856732929894019 -0.960221244865714 9.63054254557261e-16 1978.60709617955 1548.67894728414)" fill="#7e7e7e" fill-rule="evenodd" stroke-opacity="0" stroke="#000000" stroke-width="0" stroke-linecap="square" stroke-linejoin="bevel" width="139.5" height="29.6522453135831" rx="10.1118514282712" ry="10.1118514282712"/><rect id="shape01311" transform="matrix(6.66287384070682e-17 0.856732926559882 -0.960221241128833 5.94477934911893e-17 2030.68791095957 1548.28377620505)" fill="#7e7e7e" fill-rule="evenodd" stroke-opacity="0" stroke="#000000" stroke-width="0" stroke-linecap="square" stroke-linejoin="bevel" width="139.5" height="29.6522453135831" rx="10.1118514282712" ry="10.1118514282712"/><rect id="shape01112" transform="matrix(1.33257476814131e-16 0.856732947730288 -0.9602212648565 1.18895586982373e-16 2081.08918060038 1549.15124655527)" fill="#7e7e7e" fill-rule="evenodd" stroke-opacity="0" stroke="#000000" stroke-width="0" stroke-linecap="square" stroke-linejoin="bevel" width="139.5" height="29.6522453135831" rx="10.1118514282712" ry="10.1118514282712"/><rect id="shape01321" transform="matrix(6.6628741040363e-17 0.856732960419595 -0.960221279078601 5.94477958406795e-17 2132.60550811248 1548.73608632551)" fill="#7e7e7e" fill-rule="evenodd" stroke-opacity="0" stroke="#000000" stroke-width="0" stroke-linecap="square" stroke-linejoin="bevel" width="139.5" height="29.6522453135831" rx="10.1118514282712" ry="10.1118514282712"/><rect id="shape047" transform="matrix(0.999997078684598 -0.00236546938230144 0.0119370087234824 0.999974437435207 1568.48091344432 2106.60109041142)" fill="#b53d3b" fill-rule="evenodd" stroke="#780422" stroke-width="9" stroke-linecap="square" stroke-linejoin="bevel" width="1039.00360469881" height="289.262944694933" rx="144.631472347467" ry="144.631472347467"/>
</svg>
